<?xml version="1.0" encoding="utf-8"?>
<!-- Generator: Adobe Illustrator 23.0.1, SVG Export Plug-In . SVG Version: 6.00 Build 0)  -->
<svg version="1.1" id="Layer_1" xmlns="http://www.w3.org/2000/svg" xmlns:xlink="http://www.w3.org/1999/xlink" x="0px" y="0px"
	 viewBox="0 0 64 64" style="enable-background:new 0 0 64 64;" xml:space="preserve">
<style type="text/css">
	.st0{fill:#FFFFFF;}
	.st1{fill:#2966B1;}
</style>
<g>
	<circle class="st0" cx="32" cy="32" r="32"/>
	<g>
		<path class="st1" d="M31.6,53.2c-0.2,0-0.3,0-0.5-0.1c-0.8-0.2-1.4-0.9-1.4-1.8c0-0.3,0-0.6,0-0.9c-0.3,0-0.5-0.1-0.8-0.1
			c-0.7-0.2-1.3-0.6-1.5-1.3c-0.1-0.2-0.1-0.3-0.1-0.5c0-0.3,0-0.7,0-1c0-0.2-0.1-0.3-0.2-0.4c-0.2-0.2-0.4-0.4-0.5-0.6
			c-0.3-0.4-0.3-0.9-0.3-1.4c0-0.4,0.2-0.8,0.4-1.2c0.2-0.2,0.2-0.5,0.1-0.7c-0.2-1.1-0.7-2.1-1.5-2.9c-0.5-0.5-1-1-1.5-1.6
			c-1.1-1.4-1.8-2.9-2.1-4.7c-0.4-2.9,0.2-5.6,2-7.9c1.5-2,3.5-3.2,6-3.8C30.9,22,32,22,33,22.1c3.7,0.3,7.9,3.1,9,8
			c0.6,3,0.1,5.7-1.7,8.2c-0.5,0.7-1.1,1.3-1.7,1.9c-0.7,0.8-1.2,1.6-1.5,2.7c0,0.1,0,0.2-0.1,0.4c0,0.2,0,0.4,0.2,0.5
			c0.4,0.3,0.5,0.8,0.5,1.3c0,0.2,0,0.4,0,0.6c0,0.6-0.3,1-0.7,1.3c-0.1,0.1-0.1,0.1-0.2,0.1c-0.1,0.1-0.2,0.2-0.1,0.3
			c0.1,0.5,0.1,0.9,0,1.4c-0.2,0.7-0.9,1.4-1.6,1.5c-0.3,0.1-0.3,0.1-0.4,0.4c0,0.3,0,0.7-0.1,1c-0.2,0.8-0.8,1.2-1.5,1.4
			c0,0,0,0-0.1,0C32.5,53.2,32,53.2,31.6,53.2z M31.3,43.2c0-0.1,0-0.1,0-0.2c0-1.7,0-3.4,0-5.1c0-0.1,0-0.2-0.1-0.2
			c-0.9-0.3-1.7-0.9-2.1-1.8c-0.2-0.5-0.4-0.9-0.3-1.4c0-0.4,0.3-0.6,0.7-0.6c0.4,0,0.6,0.1,0.7,0.5c0,0.1,0,0.1,0,0.2
			c0.1,0.2,0.1,0.5,0.2,0.7c0.2,0.4,0.5,0.7,0.9,1c0-0.1,0-0.2,0-0.3c0-0.3,0-0.6,0.1-1c0-0.5,0.7-0.7,1.1-0.4
			c0.1,0.1,0.1,0.1,0.2,0.2c0,0.1,0.1,0.1,0.1,0.2c0,0.3,0,0.5,0,0.8c0,0.1,0,0.3,0,0.4c0.9-0.4,1.4-1.6,0.9-2.5
			c-0.3-0.6-0.8-0.9-1.4-1c-0.2,0-0.4-0.1-0.6-0.2c-0.2-0.1-0.3-0.2-0.3-0.5c0-0.5,0.2-0.8,0.7-0.8c0.6,0,1.1,0.2,1.6,0.4
			c1.2,0.7,1.8,2,1.6,3.3c-0.2,1.3-1,2.1-2.2,2.6c-0.2,0.1-0.3,0.1-0.3,0.4c0,1.7,0,3.4,0,5.1c0,0,0,0,0,0.1c1,0,1.9,0,2.9,0
			c0-0.1,0.1-0.3,0.1-0.4c0.3-1.1,0.7-2.1,1.5-3c0.5-0.5,1-1,1.5-1.6c2-2.3,2.6-4.9,2-7.8c-0.8-3.9-4.9-7.7-10.2-6.7
			c-2.2,0.4-4,1.5-5.4,3.3c-1.4,1.9-2,4-1.8,6.3c0.1,1.4,0.5,2.7,1.3,3.8c0.5,0.8,1.1,1.4,1.7,2.1c0.6,0.6,1.2,1.3,1.6,2.2
			c0.3,0.6,0.4,1.2,0.5,1.8c0,0.1,0.1,0.2,0.2,0.2c0.9,0,1.7,0,2.6,0C31.2,43.2,31.2,43.2,31.3,43.2z M28.2,44.6
			c-0.1,0-0.2,0-0.2,0.1c-0.3,0.3-0.3,0.7-0.2,1c0,0.2,0.3,0.4,0.5,0.4c1.8,0,3.7,0,5.5,0c0.7,0,1.4,0,2.1,0c0.1,0,0.2-0.1,0.3-0.2
			c0.2-0.3,0.2-0.6,0-1c-0.1-0.1-0.2-0.2-0.3-0.2c-0.2,0-0.5,0-0.7,0C34.1,44.6,29.5,44.6,28.2,44.6z M29.1,47.5
			c-0.1,0-0.2,0-0.2,0.1c-0.3,0.3-0.3,0.8-0.1,1.1c0.1,0.1,0.2,0.2,0.3,0.2c0.2,0,0.4,0,0.6,0c1.7,0,3.4,0,5.1,0
			c0.2,0,0.5-0.2,0.5-0.5c0-0.2,0-0.4,0-0.5c0-0.3-0.3-0.5-0.5-0.5C33.9,47.5,30.1,47.5,29.1,47.5z M31.1,50.5c0,0.3,0,0.6,0,0.9
			c0,0.3,0.3,0.5,0.6,0.5c0.4,0,0.8,0,1.2,0c0.2,0,0.3-0.1,0.4-0.2c0.2-0.4,0.1-0.7,0.1-1.1C32.5,50.5,31.8,50.5,31.1,50.5z"/>
		<g>
			<g>
				<path class="st1" d="M17.9,34.1h-6.9c-0.4,0-0.8-0.4-0.8-0.8s0.4-0.8,0.8-0.8h6.9c0.4,0,0.8,0.4,0.8,0.8S18.3,34.1,17.9,34.1z"
					/>
			</g>
			<g>
				<path class="st1" d="M53.1,34.1h-6.9c-0.4,0-0.8-0.4-0.8-0.8s0.4-0.8,0.8-0.8h6.9c0.4,0,0.8,0.4,0.8,0.8S53.5,34.1,53.1,34.1z"
					/>
			</g>
		</g>
		<g>
			<path class="st1" d="M17.1,49c-0.2,0-0.4-0.1-0.6-0.2c-0.3-0.3-0.3-0.8,0-1.1l4.9-4.9c0.3-0.3,0.8-0.3,1.1,0
				c0.3,0.3,0.3,0.8,0,1.1l-4.9,4.9C17.5,48.9,17.3,49,17.1,49z"/>
		</g>
		<g>
			<path class="st1" d="M42,23.4c-0.2,0-0.4-0.1-0.6-0.2c-0.3-0.3-0.3-0.8,0-1.1l4.9-4.9c0.3-0.3,0.8-0.3,1.1,0s0.3,0.8,0,1.1
				l-4.9,4.9C42.4,23.4,42.2,23.4,42,23.4z"/>
		</g>
		<g>
			<path class="st1" d="M46.9,49c-0.2,0-0.4-0.1-0.6-0.2l-4.9-4.9c-0.3-0.3-0.3-0.8,0-1.1s0.8-0.3,1.1,0l4.9,4.9
				c0.3,0.3,0.3,0.8,0,1.1C47.3,48.9,47.1,49,46.9,49z"/>
		</g>
		<g>
			<path class="st1" d="M22,23.4c-0.2,0-0.4-0.1-0.6-0.2l-4.9-4.9c-0.3-0.3-0.3-0.8,0-1.1c0.3-0.3,0.8-0.3,1.1,0l4.9,4.9
				c0.3,0.3,0.3,0.8,0,1.1C22.4,23.4,22.2,23.4,22,23.4z"/>
		</g>
		<g>
			<g>
				<path class="st1" d="M32,19.3c-0.4,0-0.8-0.4-0.8-0.8v-6.9c0-0.4,0.4-0.8,0.8-0.8c0.4,0,0.8,0.4,0.8,0.8v6.9
					C32.8,18.9,32.4,19.3,32,19.3z"/>
			</g>
		</g>
	</g>
</g>
</svg>
