<?xml version="1.0" encoding="utf-8"?>
<svg id="svg2" xmlns="http://www.w3.org/2000/svg" viewBox="0 0 87.86 25"><defs><style>.cls-1{fill:#fff;}</style></defs><title>Artboard 4</title><rect class="cls-1" x="22.86" width="4" height="25"/><path class="cls-1" d="M40.86,17a3.88,3.88,0,0,1-4.17,4.14c-2.39,0-2.83-2.24-2.83-3.59V8h-4v9.55a7.78,7.78,0,0,0,2.05,5.63A6.69,6.69,0,0,0,36.66,25a6.88,6.88,0,0,0,4.2-1.32V25h4V8h-4Z"/><polygon class="cls-1" points="52.86 2 48.86 2 48.86 8 45.86 8 45.86 12 48.86 12 48.86 25 52.86 25 52.86 12 55.86 12 55.86 8 52.86 8 52.86 2"/><path class="cls-1" d="M68.46,19.92a4.86,4.86,0,0,1-3.28,1.21,4.68,4.68,0,0,1-4.83-4.84,4.59,4.59,0,0,1,4.83-4.77,5,5,0,0,1,3.3,1.2l.61.52,2.69-2.69-.67-.61A8.8,8.8,0,0,0,65.17,7.7a8.32,8.32,0,0,0-8.63,8.56,8.48,8.48,0,0,0,8.63,8.68,8.74,8.74,0,0,0,6-2.26l.66-.61-2.74-2.69Z"/><path class="cls-1" d="M86.06,9.48A6.24,6.24,0,0,0,77.86,9V0h-4V25h4V15.64c0-3.83,2.72-4.13,3.68-4.13,2.39,0,2.32,2.23,2.32,3.58V25h4V15.11c0-2.37-.49-4.32-1.8-5.63"/><path class="cls-1" d="M65,13.44a2.89,2.89,0,1,1-2.89,2.89A2.89,2.89,0,0,1,65,13.44"/><path class="cls-1" d="M17.26,18.72a8,8,0,0,1-5.76,2.41c-4.46,0-7.7-3.5-7.7-8.3S7,4.5,11.5,4.5a8.06,8.06,0,0,1,5.74,2.4l.61.6,2.67-2.67-.59-.61A11.63,11.63,0,0,0,11.5.7C4.93.7,0,5.92,0,12.85S5,25,11.5,25A11.7,11.7,0,0,0,20,21.42l.58-.61-2.65-2.72Z"/></svg>