<?xml version="1.0" encoding="utf-8"?>
<svg id="Icon_and_text" data-name="Icon and text" xmlns="http://www.w3.org/2000/svg" viewBox="0 0 240 216"><defs><style>.cls-1{fill:none;stroke:#fff;stroke-linecap:round;stroke-linejoin:round;stroke-width:8px;}</style></defs><title>Small_ContentManagement</title><rect class="cls-1" x="4" y="4" width="232" height="208" rx="16"/><line class="cls-1" x1="4" y1="36" x2="236" y2="36"/><line class="cls-1" x1="192" y1="20" x2="196" y2="20"/><line class="cls-1" x1="168" y1="20" x2="172" y2="20"/><line class="cls-1" x1="216" y1="20" x2="220" y2="20"/><path class="cls-1" d="M-688,774.11a32,32,0,0,0-32,32c0,17.68,16,36,16,48h16" transform="translate(807.96 -694)"/><path class="cls-1" d="M-688,774.11a32,32,0,0,1,32,32c0,17.68-16,36-16,48h-16" transform="translate(807.96 -694)"/><line class="cls-1" x1="136" y1="176.11" x2="104" y2="176.11"/><line class="cls-1" x1="120" y1="56.11" x2="120" y2="64.11"/><line class="cls-1" x1="148" y1="63.62" x2="144" y2="70.54"/><line class="cls-1" x1="168.5" y1="84.11" x2="161.57" y2="88.11"/><line class="cls-1" x1="176" y1="112.11" x2="168" y2="112.11"/><line class="cls-1" x1="168.5" y1="140.11" x2="161.57" y2="136.11"/><line class="cls-1" x1="92" y1="63.62" x2="96" y2="70.54"/><line class="cls-1" x1="71.5" y1="84.11" x2="78.43" y2="88.11"/><line class="cls-1" x1="64" y1="112.11" x2="72" y2="112.11"/><line class="cls-1" x1="71.5" y1="140.11" x2="78.43" y2="136.11"/><line class="cls-1" x1="107.91" y1="192.11" x2="131.91" y2="192.11"/></svg>