<?xml version="1.0" encoding="utf-8"?>
<svg id="Icon_and_text" data-name="Icon and text" xmlns="http://www.w3.org/2000/svg" viewBox="0 0 239.6 224.12"><defs><style>.cls-1{fill:#fff;}</style></defs><title>Small_CustomApps</title><path class="cls-1" d="M-1181,1159.83a35.83,35.83,0,0,0-32.6,38.67,35.59,35.59,0,0,0,11.51,23.34,35.69,35.69,0,0,0,24.1,9.38c1,0,2,0,3-.12a35.84,35.84,0,0,0,32.63-38.65A35.87,35.87,0,0,0-1181,1159.83Zm5.5,64.88a29.38,29.38,0,0,1-31.72-26.75,29.41,29.41,0,0,1,26.77-31.74c.82-.07,1.66-.11,2.5-.11a29.53,29.53,0,0,1,29.23,26.88A29.4,29.4,0,0,1-1175.49,1224.71Z" transform="translate(1261.72 -1111.71)"/><path class="cls-1" d="M-1123.54,1256.32l-4.5-11.84a70.58,70.58,0,0,0,6.79-8l12.43,2.42a3.18,3.18,0,0,0,3.39-1.55,85.86,85.86,0,0,0,6-12.75,3.18,3.18,0,0,0-1-3.6l-9.83-8a69.36,69.36,0,0,0,1.85-10.37l11.95-4.1a3.2,3.2,0,0,0,2.17-3c0-2.56-.11-4.86-.27-7s-.48-4.31-.93-7a3.2,3.2,0,0,0-2.65-2.64l-12.45-2a71.26,71.26,0,0,0-3.59-9.91l8.32-9.54a3.21,3.21,0,0,0,.36-3.71,81.33,81.33,0,0,0-8.11-11.59,3.22,3.22,0,0,0-3.59-.94l-11.83,4.48a71.05,71.05,0,0,0-8-6.77l2.44-12.44a3.2,3.2,0,0,0-1.55-3.39,82.74,82.74,0,0,0-12.79-6,3.22,3.22,0,0,0-3.59,1l-8,9.82a68.94,68.94,0,0,0-10.36-1.87l-4.11-12a3.2,3.2,0,0,0-3-2.16c-2.22,0-4.61,0-7,.28-2.29.2-4.65.51-7,.91a3.22,3.22,0,0,0-2.61,2.64l-2,12.48a70.36,70.36,0,0,0-9.92,3.59l-9.52-8.33a3.23,3.23,0,0,0-3.7-.37,82.41,82.41,0,0,0-11.59,8.07,3.2,3.2,0,0,0-1,3.6l4.5,11.85a70.2,70.2,0,0,0-6.79,8l-12.43-2.44a3.22,3.22,0,0,0-3.39,1.54,83.09,83.09,0,0,0-6,12.8,3.23,3.23,0,0,0,1,3.58l9.8,8a68.37,68.37,0,0,0-1.86,10.35l-12,4.07a3.21,3.21,0,0,0-2.17,3.06c0,2.77.12,5,.28,7s.46,4.26.92,7a3.22,3.22,0,0,0,2.64,2.63l12.48,2a72.92,72.92,0,0,0,3.59,9.89l-8.35,9.56a3.18,3.18,0,0,0-.35,3.72,81.65,81.65,0,0,0,8.12,11.58,3.2,3.2,0,0,0,3.58.93l11.82-4.49a68.23,68.23,0,0,0,8,6.79l-2.45,12.44a3.19,3.19,0,0,0,1.54,3.4,86.55,86.55,0,0,0,12.79,6,3.21,3.21,0,0,0,3.59-1l8-9.83a70.62,70.62,0,0,0,10.35,1.86l4.07,12a3.2,3.2,0,0,0,3,2.17h.23c2.52,0,4.78-.09,6.91-.26s4.4-.49,7-.91a3.21,3.21,0,0,0,2.64-2.65l2-12.47a69.24,69.24,0,0,0,9.91-3.59l9.53,8.33a3.21,3.21,0,0,0,3.72.36,84.4,84.4,0,0,0,11.59-8.09A3.22,3.22,0,0,0-1123.54,1256.32Zm-11.23-11.52,4.41,11.62a78.68,78.68,0,0,1-7,4.87l-9.36-8.17a3.18,3.18,0,0,0-3.51-.46,63.33,63.33,0,0,1-12.62,4.57,3.19,3.19,0,0,0-2.4,2.6l-2,12.23c-1.46.21-2.84.37-4.21.5s-2.75.18-4.28.21l-4-11.75a3.18,3.18,0,0,0-2.82-2.16,63.58,63.58,0,0,1-13.21-2.36,3.28,3.28,0,0,0-.88-.12,3.19,3.19,0,0,0-2.48,1.18l-7.86,9.63a78.86,78.86,0,0,1-7.7-3.63l2.41-12.2a3.18,3.18,0,0,0-1.36-3.29,61.29,61.29,0,0,1-10.25-8.64,3.19,3.19,0,0,0-3.45-.79l-11.61,4.42a76.19,76.19,0,0,1-4.88-7l8.18-9.37a3.19,3.19,0,0,0,.48-3.49,65.17,65.17,0,0,1-4.58-12.65,3.2,3.2,0,0,0-2.6-2.39l-12.24-2c-.23-1.56-.38-2.9-.49-4.23s-.18-2.68-.22-4.26l11.72-4a3.19,3.19,0,0,0,2.16-2.79,64,64,0,0,1,2.38-13.2,3.18,3.18,0,0,0-1-3.39l-9.62-7.89a76.11,76.11,0,0,1,3.61-7.69l12.2,2.4a3.19,3.19,0,0,0,3.27-1.35,62.62,62.62,0,0,1,8.65-10.26,3.21,3.21,0,0,0,.78-3.45l-4.41-11.62a76.16,76.16,0,0,1,7-4.86l9.35,8.18a3.2,3.2,0,0,0,3.51.47,63,63,0,0,1,12.64-4.58,3.21,3.21,0,0,0,2.4-2.6l2-12.24c1.43-.21,2.85-.37,4.23-.49s2.64-.19,4.22-.23l4,11.74a3.2,3.2,0,0,0,2.8,2.16,61.72,61.72,0,0,1,13.19,2.38,3.23,3.23,0,0,0,3.4-1.05l7.84-9.65a77.11,77.11,0,0,1,7.69,3.64l-2.39,12.2a3.19,3.19,0,0,0,1.34,3.26,65.7,65.7,0,0,1,10.28,8.66,3.21,3.21,0,0,0,3.44.77l11.61-4.4a76.87,76.87,0,0,1,4.87,7l-8.16,9.37a3.21,3.21,0,0,0-.46,3.5,65.27,65.27,0,0,1,4.57,12.63,3.21,3.21,0,0,0,2.6,2.4l12.22,2c.22,1.56.39,2.94.5,4.22s.17,2.74.21,4.27l-11.72,4a3.18,3.18,0,0,0-2.15,2.81,62.64,62.64,0,0,1-2.37,13.2,3.18,3.18,0,0,0,1.05,3.38l9.64,7.86a78.78,78.78,0,0,1-3.64,7.68l-12.2-2.38a3.22,3.22,0,0,0-3.27,1.35,63.21,63.21,0,0,1-8.65,10.25A3.2,3.2,0,0,0-1134.77,1244.8Z" transform="translate(1261.72 -1111.71)"/><path class="cls-1" d="M-1077.81,1259.71a22.08,22.08,0,0,0-20.39,23.44,22,22,0,0,0,21.88,20.43c.51,0,1,0,1.54,0a22,22,0,0,0,20.39-23.41A22.06,22.06,0,0,0-1077.81,1259.71Zm2.59,37.43a15.55,15.55,0,0,1-16.59-14.43,15.65,15.65,0,0,1,14.45-16.61l1.06,0a15.62,15.62,0,0,1,15.52,14.5A15.56,15.56,0,0,1-1075.22,1297.14Z" transform="translate(1261.72 -1111.71)"/><path class="cls-1" d="M-1022.22,1278v-.06a60.09,60.09,0,0,0-.88-6.56,3.2,3.2,0,0,0-2.28-2.47l-9-2.54a45.41,45.41,0,0,0-4.43-8.91l3.4-8.73a3.17,3.17,0,0,0-.6-3.31,56.19,56.19,0,0,0-9.94-8.68,3.22,3.22,0,0,0-3.39-.15l-8.17,4.6a47,47,0,0,0-9.39-3.17l-3.74-8.56a3.22,3.22,0,0,0-2.8-1.92,59.61,59.61,0,0,0-6.59,0,58.18,58.18,0,0,0-6.54.88,3.16,3.16,0,0,0-2.48,2.28l-2.52,9a45.83,45.83,0,0,0-8.9,4.42l-8.73-3.43a3.18,3.18,0,0,0-3.33.62,57,57,0,0,0-8.64,9.93,3.2,3.2,0,0,0-.15,3.36l4.56,8.2a44.27,44.27,0,0,0-3.18,9.44l-8.56,3.75a3.17,3.17,0,0,0-1.91,2.77,58.2,58.2,0,0,0,0,6.61,59.9,59.9,0,0,0,.87,6.55,3.23,3.23,0,0,0,2.3,2.51l9,2.47a44.43,44.43,0,0,0,4.44,8.95l-3.4,8.7a3.19,3.19,0,0,0,.59,3.3,55.3,55.3,0,0,0,9.92,8.69,3.18,3.18,0,0,0,3.38.16l8.18-4.59a44.66,44.66,0,0,0,9.43,3.15l3.71,8.57a3.19,3.19,0,0,0,2.79,1.93c1,0,2,.07,3,.07,1.26,0,2.44,0,3.62-.12a56.18,56.18,0,0,0,6.54-.86,3.25,3.25,0,0,0,2.49-2.29l2.53-9a45.06,45.06,0,0,0,8.9-4.43l8.7,3.42a3.19,3.19,0,0,0,3.3-.59,53.94,53.94,0,0,0,8.7-10,3.18,3.18,0,0,0,.14-3.37l-4.57-8.13a44.82,44.82,0,0,0,3.18-9.46l8.54-3.7a3.18,3.18,0,0,0,1.93-2.76A56,56,0,0,0-1022.22,1278Zm-16.43,10.25a37.81,37.81,0,0,1-3.67,10.9,3.21,3.21,0,0,0,.06,3l4.4,7.83a46.48,46.48,0,0,1-5.1,5.87l-8.38-3.3a3.2,3.2,0,0,0-3,.36,38,38,0,0,1-10.28,5.11,3.2,3.2,0,0,0-2.11,2.19l-2.43,8.65c-1.36.21-2.62.36-3.85.44s-2.56.12-3.88.1l-3.57-8.25a3.2,3.2,0,0,0-2.39-1.88,38.46,38.46,0,0,1-10.9-3.64,3.22,3.22,0,0,0-3,0l-7.85,4.41a48.94,48.94,0,0,1-5.84-5.1l3.28-8.39a3.18,3.18,0,0,0-.36-3,37.86,37.86,0,0,1-5.13-10.32,3.19,3.19,0,0,0-2.2-2.11l-8.65-2.38c-.21-1.38-.36-2.64-.45-3.86s-.1-2.56-.08-3.89l8.25-3.61a3.18,3.18,0,0,0,1.87-2.39,37.86,37.86,0,0,1,3.66-10.88,3.2,3.2,0,0,0,0-3l-4.39-7.9a50.16,50.16,0,0,1,5.1-5.85l8.39,3.29a3.19,3.19,0,0,0,3-.35,38.66,38.66,0,0,1,10.3-5.1,3.2,3.2,0,0,0,2.1-2.19l2.43-8.67c1.3-.2,2.59-.34,3.84-.44s2.41-.1,3.89-.08l3.6,8.24a3.2,3.2,0,0,0,2.37,1.87,40,40,0,0,1,10.91,3.68,3.16,3.16,0,0,0,3-.08l7.85-4.42a49,49,0,0,1,5.86,5.11l-3.28,8.4a3.16,3.16,0,0,0,.36,3,39.31,39.31,0,0,1,5.12,10.32,3.2,3.2,0,0,0,2.18,2.09l8.66,2.45c.2,1.28.35,2.58.45,3.86s.1,2.64.09,3.89l-8.25,3.58A3.14,3.14,0,0,0-1038.65,1288.22Z" transform="translate(1261.72 -1111.71)"/></svg>