<?xml version="1.0" encoding="utf-8"?>
<!-- Generator: Adobe Illustrator 23.0.1, SVG Export Plug-In . SVG Version: 6.00 Build 0)  -->
<svg version="1.1" id="Layer_1" xmlns="http://www.w3.org/2000/svg" xmlns:xlink="http://www.w3.org/1999/xlink" x="0px" y="0px"
	 viewBox="0 0 64 64" style="enable-background:new 0 0 64 64;" xml:space="preserve">
<style type="text/css">
	.st0{fill:#FFFFFF;}
	.st1{fill:#2966B1;}
</style>
<g>
	<circle class="st0" cx="32" cy="32" r="32"/>
	<g>
		<g>
			<path class="st1" d="M26,41.2c-0.2,0-0.4-0.1-0.5-0.2l-6.3-6l6.3-5.8c0.3-0.3,0.7-0.3,1,0s0.3,0.7,0,1L21.3,35l5.2,5
				c0.3,0.3,0.3,0.7,0,1C26.4,41.1,26.2,41.2,26,41.2z"/>
			<path class="st1" d="M38,41.2c-0.2,0-0.4-0.1-0.5-0.2c-0.3-0.3-0.3-0.7,0-1l5.2-4.9l-5.2-4.8c-0.3-0.3-0.3-0.7,0-1
				c0.3-0.3,0.7-0.3,1,0l6.3,5.8l-6.3,6C38.4,41.1,38.2,41.2,38,41.2z"/>
			<path class="st1" d="M28.9,41.2c-0.1,0-0.2,0-0.4-0.1c-0.3-0.2-0.5-0.6-0.3-1l6.2-10.8c0.2-0.3,0.6-0.5,1-0.3
				c0.3,0.2,0.5,0.6,0.3,1l-6.2,10.8C29.4,41.1,29.1,41.2,28.9,41.2z"/>
		</g>
		<g>
			<g>
				<path class="st1" d="M48.9,20.7H24.5c-0.3,0-0.6-0.3-0.6-0.6c0-0.3,0.3-0.6,0.6-0.6h24.4c0.3,0,0.6,0.3,0.6,0.6
					C49.5,20.5,49.2,20.7,48.9,20.7z"/>
				<path class="st1" d="M15.7,20.7h-0.6c-0.3,0-0.6-0.3-0.6-0.6c0-0.3,0.3-0.6,0.6-0.6h0.6c0.3,0,0.6,0.3,0.6,0.6
					C16.4,20.5,16.1,20.7,15.7,20.7z"/>
				<path class="st1" d="M18.2,20.7h-0.6c-0.3,0-0.6-0.3-0.6-0.6c0-0.3,0.3-0.6,0.6-0.6h0.6c0.3,0,0.6,0.3,0.6,0.6
					C18.9,20.5,18.6,20.7,18.2,20.7z"/>
				<path class="st1" d="M20.7,20.7h-0.6c-0.3,0-0.6-0.3-0.6-0.6c0-0.3,0.3-0.6,0.6-0.6h0.6c0.3,0,0.6,0.3,0.6,0.6
					C21.4,20.5,21.1,20.7,20.7,20.7z"/>
			</g>
			<path class="st1" d="M51.4,23.9H12.6c-0.3,0-0.6-0.3-0.6-0.6c0-0.3,0.3-0.6,0.6-0.6h38.8c0.3,0,0.6,0.3,0.6,0.6
				C52,23.6,51.7,23.9,51.4,23.9z"/>
			<path class="st1" d="M50.1,47.6H13.9c-1,0-1.9-0.8-1.9-1.9V18.2c0-1,0.8-1.9,1.9-1.9h36.3c1,0,1.9,0.8,1.9,1.9v27.5
				C52,46.8,51.2,47.6,50.1,47.6z M13.9,17.6c-0.3,0-0.6,0.3-0.6,0.6v27.5c0,0.3,0.3,0.6,0.6,0.6h36.3c0.3,0,0.6-0.3,0.6-0.6V18.2
				c0-0.3-0.3-0.6-0.6-0.6H13.9z"/>
		</g>
	</g>
</g>
</svg>
