<?xml version="1.0" encoding="utf-8"?>
<svg id="Icon_and_text" data-name="Icon and text" xmlns="http://www.w3.org/2000/svg" viewBox="0 0 234.42 221.45"><defs><style>.cls-1{fill:#fff;}</style></defs><title>Small_eCommerce</title><path class="cls-1" d="M-565.65,319.48a3.94,3.94,0,0,0-3-1.33H-738.33c-3.48-17.54-10.86-29.65-22-36-1.07-.62-2.16-1.16-3.24-1.65v-3a4.55,4.55,0,0,0-4.53-4.53h-26.45a4.55,4.55,0,0,0-4.53,4.53v7.37a4.55,4.55,0,0,0,4.53,4.53h26.45a4.47,4.47,0,0,0,2.78-1l1,.57c9.63,5.52,15.92,16.87,18.7,33.75a.43.43,0,0,1,0,.05v0l17.63,93.25c-5.58,3.81-17.81,14.88-18.92,39.19a19.81,19.81,0,0,0-15.9,19.39,19.8,19.8,0,0,0,19.78,19.77,19.79,19.79,0,0,0,19.77-19.77,19.66,19.66,0,0,0-4-11.84h102.83a19.67,19.67,0,0,0-4,11.84,19.8,19.8,0,0,0,19.78,19.77,19.79,19.79,0,0,0,19.77-19.77,19.79,19.79,0,0,0-19.77-19.77H-738.86c1.3-22.88,13.67-31.32,16.51-33l99.41-8.8a4.15,4.15,0,0,0,.88.11h.1a4.1,4.1,0,0,0,1.45-.33l42.43-3.75a4,4,0,0,0,3.58-3.49l3.26-27.57a3.85,3.85,0,0,0,.27-1.7c0-.07,0-.14,0-.21l6.34-53.63A3.94,3.94,0,0,0-565.65,319.48Zm-42.87,143.36a11.85,11.85,0,0,1,11.84,11.84,11.85,11.85,0,0,1-11.84,11.84,11.85,11.85,0,0,1-11.84-11.84A11.85,11.85,0,0,1-608.52,462.84Zm-122.59,11.84a11.85,11.85,0,0,1-11.84,11.84,11.85,11.85,0,0,1-11.84-11.84,11.85,11.85,0,0,1,11.84-11.84A11.85,11.85,0,0,1-731.11,474.68Zm72.33-148.6,1.56,19.27H-679.7l-2.92-19.27Zm-31.87,0,2.93,19.27H-706.9l-3.53-19.27Zm-46.2,0h18.35l3.53,19.27h-18.24Zm5.14,27.2h18.2l5.28,28.82-17.8,1.25Zm11.43,60.52-4.27-22.6,17.76-1.25,4.09,22.3Zm14.83-60.52h18.93l4.1,27-17.85,1.25Zm10.68,58.26-4.06-22.15,17.61-1.24,3.32,21.9Zm16.28-58.26h21.91l2,25.05-19.93,1.4Zm8.51,56.07-3.3-21.75,19.37-1.37,1.74,21.54Zm19.16-83.27h22.63l.5,19.27h-21.57Zm2.2,27.2h21.13l.6,23.1-19.75,1.39Zm4.36,53.79L-646,385.68l19.32-1.36.55,21.15Zm24-81H-602l0,19.27h-17.74Zm.71,27.2H-602l0,21.35-17,1.19Zm1.34,51.49-.55-21,16.78-1.18,0,20.75Zm36.21-3.21-12,1.07,0-20.61,14.48-1Zm3.38-28.57-15.44,1.08,0-20.79h17.79Zm3.27-27.64h-18.74l0-19.27h21Z" transform="translate(799.06 -273)"/></svg>