<?xml version="1.0" encoding="utf-8"?>
<svg id="svg2" xmlns="http://www.w3.org/2000/svg" viewBox="0 0 129.17 25"><defs><style>.cls-1{fill:#fff;}</style></defs><title>Artboard 2</title><g id="layer1"><g id="g3472"><g id="g3052"><path id="path3025" class="cls-1" d="M8.18,24.61H3.32V12.48H0v-4H3.32V5.72C3.32,2.39,4.78,0,9.64,0a26.21,26.21,0,0,1,2.63.21V3.88H10.58c-1.72,0-2.4.52-2.4,2V8.53h4l-.36,4H8.18Z"/><path id="path3027" class="cls-1" d="M19.35,8.22h-.22c-4.51,0-6.57,3.39-6.57,8.21,0,6.07,2.68,8.5,6.61,8.5a4.75,4.75,0,0,0,4.63-2.71v2.4h4.63V8.53H23.8V11a4.72,4.72,0,0,0-4.45-2.79ZM20.53,12c1.89,0,3,1.32,3,3.57v2.29a3.08,3.08,0,0,1-3,3.29c-3.23,0-3.14-3.48-3.14-4.64,0-3.9,1.72-4.51,3.14-4.51Z"/><path id="path3029" class="cls-1" d="M30.3,16.58c0-2-.1-8.35,8.24-8.35,3.34,0,4.74,1.06,4.74,1.06l-1.12,3.48A7.35,7.35,0,0,0,38.94,12a3.47,3.47,0,0,0-3.81,3.73v1.7A3.55,3.55,0,0,0,39,21.23a8,8,0,0,0,3.18-.77l1.12,3.41S42,24.94,38.56,24.94C30.63,24.94,30.3,19.2,30.3,16.58Z"/><path id="path3031" class="cls-1" d="M70.42,8.22c4.52,0,6.61,3.39,6.61,8.21,0,6.07-2.68,8.5-6.61,8.5a5,5,0,0,1-4.82-2.71v2.4H61V.49L65.89.07V10.79c.7-1.88,3-2.57,4.53-2.57ZM69.06,12c-1.89,0-3.17,1.32-3.17,3.57v2.29a3.08,3.08,0,0,0,3.18,3.29c3.23,0,3.14-3.48,3.14-4.64,0-3.9-1.72-4.51-3.14-4.51Z"/><path id="path3033" class="cls-1" d="M51.7,8.23c-5.12,0-7.82,2.79-7.82,7.75v.93c0,6.43,3.79,8.09,8.32,8.09s6.39-1.23,6.39-1.23l-.91-3.28a14.11,14.11,0,0,1-4.9,1c-2.65,0-3.79-.68-4.08-3.22H59V15.64C59,10.26,55.94,8.23,51.7,8.23Zm.12,3.28c1.77,0,2.92,1.09,2.86,3.61h-6C48.81,12.47,50.05,11.51,51.82,11.51Z"/><path id="path3035" class="cls-1" d="M86.71,8.21c-5.26,0-8,3-8,8.27,0,7.29,4.77,8.46,8,8.46,4.77,0,8-2.57,8-8.39C94.67,10.49,91.1,8.21,86.71,8.21ZM86.64,12c2.32,0,3.23,1.73,3.23,3.7v1.69c0,2.39-1.28,3.77-3.23,3.77s-3.12-1.29-3.12-3.77V15.73C83.52,13.09,85.05,12,86.64,12Z"/><path id="path3037" class="cls-1" d="M104.34,8.21c-5.26,0-8,3-8,8.27,0,7.29,4.77,8.46,8,8.46,4.78,0,8-2.57,8-8.39C112.3,10.49,108.73,8.21,104.34,8.21ZM104.28,12c2.31,0,3.22,1.73,3.22,3.7v1.69c0,2.39-1.28,3.77-3.23,3.77s-3.12-1.29-3.12-3.77V15.73C101.15,13.09,102.68,12,104.28,12Z"/><path id="path3039" class="cls-1" d="M114.14,24.61V.49L119,.07V16.24l4.82-7.71H129l-5,8,5.23,8.1H124l-5-7.86v7.86Z"/></g></g></g></svg>