<?xml version="1.0" encoding="utf-8"?>
<svg id="svg2" xmlns="http://www.w3.org/2000/svg" viewBox="0 0 98.61 32.33"><defs><style>.cls-1{fill:#fff;}</style></defs><title>Artboard 5</title><path id="path2998" class="cls-1" d="M24.24,11.42H12.74v3.41H20.9c-.4,4.79-4.39,6.83-8.15,6.83a9,9,0,0,1-9-9.09,9,9,0,0,1,9-9.15,8.85,8.85,0,0,1,6.15,2.47l2.4-2.47A12.16,12.16,0,0,0,12.64,0,12.74,12.74,0,0,0,0,12.51,12.71,12.71,0,0,0,12.82,25.09c6.72,0,11.63-4.6,11.63-11.41a10.14,10.14,0,0,0-.21-2.26Z"/><path id="path3000" class="cls-1" d="M33.67,9a8,8,0,0,0-8.1,8,8,8,0,0,0,8.16,8.13,7.9,7.9,0,0,0,8-8A7.89,7.89,0,0,0,33.67,9Zm0,3.16A4.64,4.64,0,0,1,38.24,17a4.58,4.58,0,1,1-9.14,0,4.66,4.66,0,0,1,4.62-4.88Z"/><path id="path3005" class="cls-1" d="M51.3,9a8.06,8.06,0,1,0,.05,16.12,7.91,7.91,0,0,0,8-8A7.89,7.89,0,0,0,51.3,9Zm.05,3.16A4.64,4.64,0,0,1,55.87,17a4.58,4.58,0,1,1-9.14,0,4.66,4.66,0,0,1,4.62-4.88Z"/><path id="path3007" class="cls-1" d="M68.59,9A8,8,0,0,0,60.85,17a8,8,0,0,0,7.66,8.07,5.34,5.34,0,0,0,4.43-2v1.59c0,2.78-1.69,4.45-4.24,4.45a4.48,4.48,0,0,1-4.13-2.87l-3.1,1.29a7.75,7.75,0,0,0,7.25,4.75c4.31,0,7.6-2.71,7.6-8.4V9.44H72.94V10.8A5.7,5.7,0,0,0,68.59,9Zm.31,3.16c2.13,0,4.31,1.82,4.31,4.92S71,21.91,68.86,21.91a4.58,4.58,0,0,1-4.46-4.85,4.65,4.65,0,0,1,4.5-4.95Z"/><path id="path3011" class="cls-1" d="M91.35,8.94c-4.09,0-7.52,3.25-7.52,8a7.79,7.79,0,0,0,7.91,8.09,8.18,8.18,0,0,0,6.75-3.54l-2.78-1.86a4.52,4.52,0,0,1-3.95,2.22,4.16,4.16,0,0,1-4-2.44L98.61,15l-.56-1.31a7.3,7.3,0,0,0-6.7-4.72Zm.14,3.1a3.21,3.21,0,0,1,3,1.72l-7.22,3A4.48,4.48,0,0,1,91.49,12Z"/><path id="path3015" class="cls-1" d="M78.67,24.6h3.55V.83H78.67Z"/></svg>