<?xml version="1.0" encoding="utf-8"?>
<!-- Generator: Adobe Illustrator 23.0.1, SVG Export Plug-In . SVG Version: 6.00 Build 0)  -->
<svg version="1.1" id="Layer_1" xmlns="http://www.w3.org/2000/svg" xmlns:xlink="http://www.w3.org/1999/xlink" x="0px" y="0px"
	 viewBox="0 0 64 64" style="enable-background:new 0 0 64 64;" xml:space="preserve">
<style type="text/css">
	.st0{fill:#FFFFFF;}
	.st1{fill:#2966B1;}
</style>
<g>
	<circle class="st0" cx="32" cy="32" r="32"/>
	<g>
		<g>
			<path class="st1" d="M30.8,43.3c-3.3,0-6.5-1.3-8.9-3.7c-4.9-4.9-4.9-12.8,0-17.7c4.9-4.9,12.8-4.9,17.7,0
				c3.7,3.7,4.7,9.3,2.5,14c-0.1,0.3-0.5,0.5-0.9,0.3c-0.3-0.1-0.5-0.5-0.3-0.9c1.9-4.2,1-9.3-2.3-12.6c-4.4-4.4-11.5-4.4-15.8,0
				s-4.4,11.5,0,15.8c3.3,3.3,8.3,4.2,12.6,2.3c0.3-0.2,0.7,0,0.9,0.3c0.1,0.3,0,0.7-0.3,0.9C34.3,42.9,32.6,43.3,30.8,43.3z"/>
			<path class="st1" d="M33.9,48.8h-6.2c-0.3,0-0.6-0.3-0.6-0.6l-0.3-3c-0.6-0.2-1.1-0.3-1.6-0.6c-0.5-0.2-1.1-0.5-1.6-0.8l-2.4,1.9
				c-0.3,0.2-0.6,0.2-0.9,0l-4.4-4.4c-0.2-0.2-0.3-0.6,0-0.9l1.9-2.4c-0.3-0.5-0.5-1-0.8-1.6c-0.2-0.5-0.4-1.1-0.6-1.6l-3-0.3
				c-0.3,0-0.6-0.3-0.6-0.6v-6.2c0-0.3,0.3-0.6,0.6-0.6l3-0.3c0.2-0.6,0.3-1.1,0.6-1.6c0.2-0.5,0.5-1.1,0.8-1.6l-1.9-2.4
				c-0.2-0.3-0.2-0.6,0-0.9l4.4-4.4c0.2-0.2,0.6-0.3,0.9,0l2.4,1.9c0.5-0.3,1-0.5,1.6-0.8c0.5-0.2,1.1-0.4,1.6-0.6l0.3-3
				c0-0.3,0.3-0.6,0.6-0.6h6.2c0.3,0,0.6,0.3,0.6,0.6l0.3,3c0.6,0.2,1.1,0.3,1.6,0.6c0.5,0.2,1.1,0.5,1.6,0.8l2.4-1.9
				c0.3-0.2,0.6-0.2,0.9,0l4.4,4.4c0.2,0.2,0.3,0.6,0,0.9l-1.9,2.4c0.3,0.5,0.5,1,0.8,1.6c0.2,0.5,0.4,1.1,0.6,1.6l3,0.3
				c0.3,0,0.6,0.3,0.6,0.6v6.2c0,0.3-0.3,0.6-0.6,0.6l-3,0.3c-0.2,0.6-0.3,1.1-0.6,1.6c-0.1,0.3-0.5,0.5-0.8,0.4
				c-0.3-0.1-0.5-0.5-0.4-0.8c0.3-0.6,0.5-1.2,0.6-1.9c0.1-0.3,0.3-0.5,0.6-0.5l2.9-0.3v-5.1l-2.9-0.3c-0.3,0-0.5-0.2-0.6-0.5
				c-0.2-0.6-0.4-1.3-0.6-1.9c-0.3-0.6-0.6-1.2-0.9-1.8c-0.1-0.2-0.1-0.5,0.1-0.7l1.8-2.3l-3.6-3.6L38.6,19
				c-0.2,0.2-0.5,0.2-0.7,0.1c-0.6-0.3-1.2-0.6-1.8-0.9c-0.6-0.3-1.2-0.5-1.9-0.6c-0.3-0.1-0.5-0.3-0.5-0.6l-0.3-2.9h-5.1L27.9,17
				c0,0.3-0.2,0.5-0.5,0.6c-0.6,0.2-1.3,0.4-1.9,0.6c-0.6,0.3-1.2,0.6-1.8,0.9c-0.2,0.1-0.5,0.1-0.7-0.1l-2.3-1.8l-3.6,3.6L19,23
				c0.2,0.2,0.2,0.5,0.1,0.7c-0.3,0.6-0.7,1.2-0.9,1.8c-0.3,0.6-0.5,1.2-0.6,1.9c-0.1,0.3-0.3,0.5-0.6,0.5l-2.9,0.3v5.1l2.9,0.3
				c0.3,0,0.5,0.2,0.6,0.5c0.2,0.6,0.4,1.3,0.6,1.9c0.3,0.6,0.6,1.2,0.9,1.8c0.1,0.2,0.1,0.5-0.1,0.7l-1.8,2.3l3.6,3.6l2.3-1.8
				c0.2-0.2,0.5-0.2,0.7-0.1c0.6,0.3,1.2,0.6,1.8,0.9c0.6,0.3,1.2,0.5,1.9,0.6c0.3,0.1,0.5,0.3,0.5,0.6l0.3,2.9h5.1l0.3-2.9
				c0-0.3,0.2-0.5,0.5-0.6c0.6-0.2,1.3-0.4,1.9-0.6c0.3-0.1,0.7,0,0.8,0.4c0.1,0.3,0,0.7-0.4,0.8c-0.5,0.2-1.1,0.4-1.6,0.6l-0.3,3
				C34.5,48.5,34.2,48.8,33.9,48.8z"/>
		</g>
		<g>
			<path class="st1" d="M38.5,41.1c-0.2,0-0.3-0.1-0.5-0.2l-2.3-2.3c-0.1-0.1-0.2-0.3-0.2-0.5s0.1-0.3,0.2-0.5l1.9-1.9
				c0.1-0.1,0.3-0.2,0.5-0.2l0,0c0.2,0,0.3,0.1,0.5,0.2l2.3,2.3c0.3,0.3,0.3,0.7,0,0.9L39,40.9C38.9,41,38.7,41.1,38.5,41.1z
				 M37.2,38.1l1.4,1.4l1-1l-1.4-1.4L37.2,38.1z"/>
			<path class="st1" d="M47.6,51.2c-0.3,0-0.6-0.1-0.9-0.4L37.9,42c-0.2-0.2-0.4-0.6-0.4-0.9c0-0.3,0.1-0.7,0.4-0.9l0,0l2.3-2.3
				c0.2-0.2,0.6-0.4,0.9-0.4c0,0,0,0,0,0c0.3,0,0.7,0.1,0.9,0.4l8.9,8.9c0.2,0.2,0.4,0.6,0.4,0.9c0,0.3-0.1,0.7-0.4,0.9l-2.3,2.3
				C48.3,51.1,47.9,51.2,47.6,51.2z M38.8,41.1l8.8,8.8l2.3-2.3l-8.9-8.8L38.8,41.1z M38.8,41.1C38.8,41.1,38.8,41.1,38.8,41.1
				L38.8,41.1z"/>
			<path class="st1" d="M30.8,40.5c-5.4,0-9.7-4.4-9.7-9.7s4.4-9.7,9.7-9.7c5.4,0,9.7,4.4,9.7,9.7S36.1,40.5,30.8,40.5z M30.8,22.4
				c-4.6,0-8.4,3.8-8.4,8.4s3.8,8.4,8.4,8.4c4.6,0,8.4-3.8,8.4-8.4S35.4,22.4,30.8,22.4z"/>
			<path class="st1" d="M24.1,31.4c-0.4,0-0.7-0.3-0.7-0.7c0-4,3.3-7.3,7.3-7.3c0.4,0,0.7,0.3,0.7,0.7c0,0.4-0.3,0.7-0.7,0.7
				c-3.3,0-6,2.7-6,6C24.8,31.1,24.5,31.4,24.1,31.4z"/>
			<path class="st1" d="M46,49.9c-0.2,0-0.3-0.1-0.5-0.2c-0.3-0.3-0.3-0.7,0-0.9l3.2-3.2c0.3-0.3,0.7-0.3,0.9,0s0.3,0.7,0,0.9
				l-3.2,3.2C46.4,49.8,46.2,49.9,46,49.9z"/>
		</g>
	</g>
</g>
</svg>
