<?xml version="1.0" encoding="utf-8"?>
<svg id="Icon_and_text" data-name="Icon and text" xmlns="http://www.w3.org/2000/svg" viewBox="0 0 222.47 222.47"><defs><style>.cls-1{fill:none;stroke:#fff;stroke-linecap:round;stroke-linejoin:round;stroke-width:8px;}</style></defs><title>Design_Small</title><line class="cls-1" x1="135.28" y1="121.14" x2="146.59" y2="109.82"/><line class="cls-1" x1="166.73" y1="21.8" x2="200.68" y2="55.74"/><line class="cls-1" x1="109.82" y1="146.59" x2="135.28" y2="121.14"/><line class="cls-1" x1="152.59" y1="35.94" x2="166.73" y2="21.8"/><line class="cls-1" x1="112.65" y1="75.88" x2="152.59" y2="35.94"/><line class="cls-1" x1="75.88" y1="112.65" x2="101.34" y2="87.2"/><line class="cls-1" x1="200.68" y1="55.74" x2="146.59" y2="109.82"/><line class="cls-1" x1="57.4" y1="199.02" x2="109.82" y2="146.59"/><line class="cls-1" x1="23.46" y1="165.08" x2="57.4" y2="199.02"/><line class="cls-1" x1="23.46" y1="165.08" x2="75.88" y2="112.65"/><polyline class="cls-1" points="23.46 165.08 9.31 213.16 57.4 199.02"/><path class="cls-1" d="M535.54,671.36l14.14-14.15s14.14-8.48,28.29,5.66,5.65,28.28,5.65,28.28L569.48,705.3" transform="translate(-368.81 -649.56)"/><line class="cls-1" x1="152.59" y1="35.94" x2="186.53" y2="69.88"/><line class="cls-1" x1="152.59" y1="35.94" x2="152.59" y2="35.94"/><line class="cls-1" x1="92.85" y1="129.62" x2="54.57" y2="167.91"/><line class="cls-1" x1="166.73" y1="55.74" x2="129.62" y2="92.85"/><line class="cls-1" x1="126.79" y1="95.68" x2="129.62" y2="92.85"/><line class="cls-1" x1="126.79" y1="95.68" x2="92.85" y2="129.62"/><polyline class="cls-1" points="112.65 75.88 40.77 4 4 40.77 75.88 112.65"/><polyline class="cls-1" points="109.82 146.59 181.71 218.47 218.47 181.71 155.39 118.62"/><line class="cls-1" x1="194.68" y1="163.56" x2="177.71" y2="180.53"/><line class="cls-1" x1="177.71" y1="146.59" x2="169.22" y2="155.08"/><line class="cls-1" x1="160.73" y1="129.62" x2="143.76" y2="146.59"/><line class="cls-1" x1="109.82" y1="112.65" x2="126.79" y2="95.68"/><line class="cls-1" x1="75.88" y1="78.71" x2="92.85" y2="61.74"/><line class="cls-1" x1="67.4" y1="53.25" x2="75.88" y2="44.77"/><line class="cls-1" x1="41.94" y1="44.77" x2="58.91" y2="27.8"/></svg>