<?xml version="1.0" encoding="utf-8"?>
<!-- Generator: Adobe Illustrator 23.0.1, SVG Export Plug-In . SVG Version: 6.00 Build 0)  -->
<svg version="1.1" id="Layer_1" xmlns="http://www.w3.org/2000/svg" xmlns:xlink="http://www.w3.org/1999/xlink" x="0px" y="0px"
	 viewBox="0 0 64 64" style="enable-background:new 0 0 64 64;" xml:space="preserve">
<style type="text/css">
	.st0{fill:#FFFFFF;}
	.st1{fill:#2966B1;}
</style>
<circle class="st0" cx="32" cy="32" r="32"/>
<g>
	<g>
		<path class="st1" d="M49,21.2L49,21.2L49,21.2l0.9-0.9c0.6-0.6,0.9-1.3,0.9-2.2c0-0.8-0.3-1.6-0.9-2.2c-0.6-0.6-1.3-0.9-2.2-0.9
			c-0.8,0-1.6,0.3-2.2,0.9l-0.9,0.9c0,0,0,0,0,0L31.3,30.2L30.6,31c0,0,0,0,0,0.1c0,0,0,0,0,0c0,0,0,0,0,0c0,0,0,0,0,0c0,0,0,0,0,0
			c0,0,0,0,0,0c0,0,0,0,0,0.1c0,0,0,0,0,0l0,0c0,0,0,0,0,0l-1.7,5.4c-0.1,0.2,0,0.5,0.2,0.6c0.1,0.1,0.3,0.2,0.4,0.2
			c0.1,0,0.1,0,0.2,0l5.2-1.9c0,0,0,0,0,0c0,0,0,0,0,0c0,0,0,0,0,0c0,0,0,0,0,0c0,0,0,0,0,0c0,0,0,0,0,0c0,0,0,0,0,0c0,0,0,0,0,0
			c0,0,0,0,0,0L49,21.2z M46.5,16.8c0.3-0.3,0.8-0.5,1.3-0.5c0.5,0,0.9,0.2,1.3,0.5c0.3,0.3,0.5,0.8,0.5,1.3c0,0.5-0.2,0.9-0.5,1.3
			l-0.4,0.4l-1.3-1.3c0,0,0,0,0,0L46,17.3L46.5,16.8z M30.2,35.8l1.2-3.7c1.2,0.2,2.2,1.2,2.4,2.4L30.2,35.8z M34.9,33.6
			c-0.4-1.2-1.4-2.2-2.6-2.6l12.9-12.9l2.6,2.6L34.9,33.6z"/>
	</g>
	<g>
		<path class="st1" d="M46.1,48.9H16.5c-0.3,0-0.6-0.1-0.9-0.4l-2.1-2.1c-0.2-0.2-0.4-0.5-0.4-0.9v-0.4c0-0.7,0.5-1.2,1.2-1.2h12
			c0.3,0,0.6,0.1,0.9,0.4l0.9,0.9h5.6l0.9-0.9c0.2-0.2,0.5-0.4,0.9-0.4h12.6c0.7,0,1.2,0.5,1.2,1.2v0.4c0,0.3-0.1,0.6-0.4,0.9
			l-2.1,2.1C46.7,48.8,46.4,48.9,46.1,48.9z M16.5,47.7h29.6l2.1-2.1v-0.4H35.5l-1.2,1.2h-6.6l-1.2-1.2h-12v0.4L16.5,47.7z"/>
	</g>
	<g>
		<path class="st1" d="M16.9,42.8h-1.2V25c0-1.4,1.1-2.5,2.5-2.5h16c0.3,0,0.6,0.3,0.6,0.6l0,0c0,0.3-0.3,0.6-0.6,0.6h-16
			c-0.7,0-1.2,0.5-1.2,1.2V42.8z"/>
	</g>
	<g>
		<path class="st1" d="M46.3,26.8L46.3,26.8c0.3,0,0.6,0.3,0.6,0.6v15.3h-1.2V27.4C45.7,27.1,46,26.8,46.3,26.8z"/>
	</g>
	<g>
		<path class="st1" d="M43.2,42.2H19.4c-0.7,0-1.3-0.6-1.3-1.3v-14c0-0.7,0.6-1.3,1.3-1.3h12.2c0.3,0,0.6,0.3,0.6,0.6l0,0
			c0,0.3-0.3,0.6-0.6,0.6H19.3v14.1h23.9V30.5c0-0.3,0.3-0.6,0.6-0.6l0,0c0.3,0,0.6,0.3,0.6,0.6v10.4C44.5,41.6,43.9,42.2,43.2,42.2
			z"/>
	</g>
</g>
</svg>
