<?xml version="1.0" encoding="utf-8"?>
<svg id="Icon_and_text" data-name="Icon and text" xmlns="http://www.w3.org/2000/svg" viewBox="0 0 247.67 239"><defs><style>.cls-1{fill:none;stroke:#fff;stroke-linecap:round;stroke-linejoin:round;stroke-width:8px;}</style></defs><title>Small_WorkflowSystems</title><rect class="cls-1" x="4" y="4" width="120.67" height="91.55" rx="24"/><line class="cls-1" x1="7" y1="17.92" x2="121.67" y2="17.92"/><line class="cls-1" x1="6" y1="76.42" x2="122.67" y2="76.42"/><line class="cls-1" x1="49.77" y1="96.36" x2="43.53" y2="112"/><line class="cls-1" x1="78.9" y1="96.36" x2="85.14" y2="112"/><line class="cls-1" x1="20.64" y1="112" x2="64.34" y2="112"/><line class="cls-1" x1="108.03" y1="112" x2="64.34" y2="112"/><rect class="cls-1" x="123" y="127" width="120.67" height="91.55" rx="24"/><line class="cls-1" x1="126" y1="140.92" x2="240.67" y2="140.92"/><line class="cls-1" x1="125" y1="199.42" x2="241.67" y2="199.42"/><line class="cls-1" x1="168.77" y1="219.36" x2="162.53" y2="235"/><line class="cls-1" x1="197.9" y1="219.36" x2="204.14" y2="235"/><line class="cls-1" x1="139.64" y1="235" x2="183.34" y2="235"/><line class="cls-1" x1="227.03" y1="235" x2="183.34" y2="235"/><circle class="cls-1" cx="199.19" cy="47.5" r="19"/><line class="cls-1" x1="199.48" y1="95.25" x2="199.48" y2="66.25"/><line class="cls-1" x1="151.48" y1="48.25" x2="180.48" y2="48.25"/><circle class="cls-1" cx="48.48" cy="187.25" r="19"/><line class="cls-1" x1="48.19" y1="139.5" x2="48.19" y2="168.5"/><line class="cls-1" x1="96.19" y1="186.5" x2="67.19" y2="186.5"/></svg>